<?xml version="1.0" encoding="UTF-8"?>
<svg width="19px" height="19px" viewBox="0 0 19 19" version="1.1" xmlns="http://www.w3.org/2000/svg" xmlns:xlink="http://www.w3.org/1999/xlink">
    <!-- Generator: Sketch 44.1 (41455) - http://www.bohemiancoding.com/sketch -->
    <title>ic_aboutus</title>
    <desc>Created with Sketch.</desc>
    <defs></defs>
    <g id="Icons" stroke="none" stroke-width="1" fill="none" fill-rule="evenodd">
        <g transform="translate(-186.000000, -881.000000)" id="ic_aboutus" fill-rule="nonzero" fill="#000000">
            <g transform="translate(186.000000, 881.000000)">
                <path d="M9.5,18.671 C9.397,18.671 9.294,18.639 9.206,18.575 L7.058,17.014 L4.403,17.014 C4.186,17.014 3.994,16.875 3.927,16.668 L3.107,14.143 L0.959,12.582 C0.784,12.455 0.71,12.229 0.777,12.023 L1.597,9.498 L0.777,6.973 C0.71,6.767 0.783,6.541 0.959,6.414 L3.107,4.854 L3.927,2.329 C3.994,2.123 4.186,1.983 4.403,1.983 L7.058,1.983 L9.206,0.423 C9.381,0.296 9.619,0.296 9.794,0.423 L11.942,1.983 L14.597,1.983 C14.814,1.983 15.006,2.122 15.073,2.329 L15.893,4.854 L18.041,6.414 C18.216,6.541 18.29,6.767 18.223,6.973 L17.403,9.498 L18.223,12.023 C18.29,12.229 18.217,12.455 18.041,12.582 L15.893,14.143 L15.073,16.668 C15.006,16.874 14.814,17.014 14.597,17.014 L11.942,17.014 L9.794,18.575 C9.706,18.639 9.603,18.67 9.5,18.67 L9.5,18.671 Z M4.767,16.015 L7.221,16.015 C7.327,16.015 7.429,16.048 7.515,16.111 L9.5,17.553 L11.485,16.111 C11.57,16.049 11.673,16.015 11.779,16.015 L14.233,16.015 L14.991,13.681 C15.024,13.581 15.087,13.493 15.173,13.431 L17.158,11.989 L16.4,9.655 C16.367,9.555 16.367,9.446 16.4,9.346 L17.158,7.012 L15.173,5.57 C15.088,5.508 15.024,5.42 14.991,5.32 L14.233,2.986 L11.779,2.986 C11.673,2.986 11.571,2.953 11.485,2.89 L9.5,1.448 L7.515,2.89 C7.43,2.952 7.327,2.986 7.221,2.986 L4.767,2.986 L4.009,5.32 C3.976,5.42 3.913,5.508 3.827,5.57 L1.842,7.012 L2.6,9.346 C2.633,9.446 2.633,9.555 2.6,9.655 L1.842,11.989 L3.827,13.431 C3.912,13.493 3.976,13.581 4.009,13.681 L4.767,16.015 Z" id="Shape"></path>
                <path d="M9.5,11 C9.224,11 9,10.776 9,10.5 L9,5.5 C9,5.224 9.224,5 9.5,5 C9.776,5 10,5.224 10,5.5 L10,10.5 C10,10.776 9.776,11 9.5,11 Z" id="Shape"></path>
                <path d="M9.5,14 C9.224,14 9,13.776 9,13.5 L9,12.5 C9,12.224 9.224,12 9.5,12 C9.776,12 10,12.224 10,12.5 L10,13.5 C10,13.776 9.776,14 9.5,14 Z" id="Shape"></path>
            </g>
        </g>
    </g>
</svg>