<?xml version="1.0" encoding="UTF-8"?>
<svg width="20px" height="20px" viewBox="0 0 20 20" version="1.1" xmlns="http://www.w3.org/2000/svg" xmlns:xlink="http://www.w3.org/1999/xlink">
    <!-- Generator: Sketch 44.1 (41455) - http://www.bohemiancoding.com/sketch -->
    <title>ic_contactus</title>
    <desc>Created with Sketch.</desc>
    <defs></defs>
    <g id="Icons" stroke="none" stroke-width="1" fill="none" fill-rule="evenodd">
        <g transform="translate(-186.000000, -917.000000)" id="ic_contactus" fill-rule="nonzero" fill="#000000">
            <g transform="translate(186.000000, 917.000000)">
                <path d="M16,20 C14.229,20 12.345,19.498 10.4,18.508 C8.607,17.595 6.836,16.288 5.278,14.728 C3.72,13.168 2.415,11.395 1.503,9.601 C0.515,7.655 0.013,5.771 0.013,4 C0.013,2.852 1.083,1.743 1.542,1.32 C2.203,0.711 3.243,-1.77635684e-15 3.999,-1.77635684e-15 C4.375,-1.77635684e-15 4.815,0.246 5.386,0.774 C5.811,1.168 6.29,1.702 6.769,2.318 C7.058,2.69 8.499,4.589 8.499,5.5 C8.499,6.247 7.654,6.767 6.76,7.316 C6.414,7.528 6.057,7.748 5.799,7.955 C5.523,8.176 5.474,8.293 5.466,8.319 C6.415,10.685 9.316,13.586 11.681,14.534 C11.702,14.527 11.819,14.481 12.044,14.201 C12.251,13.943 12.471,13.585 12.683,13.24 C13.233,12.346 13.752,11.501 14.499,11.501 C15.41,11.501 17.309,12.942 17.681,13.231 C18.297,13.71 18.831,14.189 19.225,14.614 C19.753,15.184 19.999,15.625 19.999,16.001 C19.999,16.757 19.288,17.8 18.68,18.464 C18.256,18.926 17.147,20.001 15.999,20.001 L16,20 Z M3.994,1 C3.726,1.005 3.005,1.333 2.221,2.055 C1.477,2.741 1.014,3.486 1.014,4 C1.014,10.729 9.278,19 16,19 C16.513,19 17.258,18.535 17.944,17.787 C18.667,16.999 18.995,16.275 19,16.006 C18.968,15.816 18.442,15.077 17.003,13.969 C15.766,13.017 14.763,12.506 14.505,12.5 C14.487,12.505 14.375,12.548 14.148,12.836 C13.951,13.087 13.74,13.43 13.535,13.762 C12.975,14.673 12.446,15.534 11.677,15.534 C11.553,15.534 11.431,15.51 11.314,15.463 C8.689,14.413 5.585,11.309 4.535,8.684 C4.409,8.369 4.389,7.875 5.009,7.313 C5.339,7.014 5.795,6.734 6.237,6.462 C6.569,6.258 6.913,6.047 7.163,5.849 C7.451,5.622 7.494,5.51 7.499,5.492 C7.492,5.234 6.982,4.231 6.03,2.994 C4.922,1.555 4.183,1.03 3.993,0.997 L3.994,1 Z" id="Shape"></path>
            </g>
        </g>
    </g>
</svg>