<?xml version="1.0" encoding="UTF-8"?>
<svg width="17px" height="20px" viewBox="0 0 17 20" version="1.1" xmlns="http://www.w3.org/2000/svg" xmlns:xlink="http://www.w3.org/1999/xlink">
    <!-- Generator: Sketch 44.1 (41455) - http://www.bohemiancoding.com/sketch -->
    <title>ic_business</title>
    <desc>Created with Sketch.</desc>
    <defs></defs>
    <g id="Icons" stroke="none" stroke-width="1" fill="none" fill-rule="evenodd">
        <g transform="translate(-187.000000, -807.000000)" id="ic_business" fill-rule="nonzero" fill="#000000">
            <g transform="translate(187.000000, 806.000000)">
                <polygon id="Shape" points="8 11 9 11 9 12 8 12"></polygon>
                <polygon id="Shape" points="10 11 11 11 11 12 10 12"></polygon>
                <polygon id="Shape" points="12 11 13 11 13 12 12 12"></polygon>
                <polygon id="Shape" points="14 11 15 11 15 12 14 12"></polygon>
                <polygon id="Shape" points="8 14 9 14 9 15 8 15"></polygon>
                <polygon id="Shape" points="10 14 11 14 11 15 10 15"></polygon>
                <polygon id="Shape" points="12 14 13 14 13 15 12 15"></polygon>
                <polygon id="Shape" points="14 14 15 14 15 15 14 15"></polygon>
                <polygon id="Shape" points="8 17 9 17 9 18 8 18"></polygon>
                <polygon id="Shape" points="10 17 11 17 11 18 10 18"></polygon>
                <polygon id="Shape" points="12 17 13 17 13 18 12 18"></polygon>
                <polygon id="Shape" points="14 17 15 17 15 18 14 18"></polygon>
                <path d="M16.5,8 L16,8 L16,5.5 C16,5.367 15.947,5.24 15.854,5.146 L14,3.292 L14,1.499 C14,1.223 13.776,0.999 13.5,0.999 C13.224,0.999 13,1.223 13,1.499 L13,3.292 L11.146,5.146 C11.052,5.24 11,5.367 11,5.5 L11,6 L9,6 L9,3.5 C9,3.224 8.776,3 8.5,3 L0.5,3 C0.224,3 0,3.224 0,3.5 L0,20.5 C0,20.776 0.224,21 0.5,21 L16.5,21 C16.776,21 17,20.776 17,20.5 L17,8.5 C17,8.224 16.776,8 16.5,8 Z M12,5.707 L13.5,4.207 L15,5.707 L15,8 L14,8 L14,6.5 C14,6.224 13.776,6 13.5,6 L12,6 L12,5.707 Z M13,7 L13,8 L9,8 L9,7 L13,7 Z M6,8.5 L6,20 L1,20 L1,4 L8,4 L8,8 L6.5,8 C6.224,8 6,8.224 6,8.5 Z M16,20 L7,20 L7,9 L16,9 L16,20 Z" id="Shape"></path>
                <polygon id="Shape" points="6 5 7 5 7 7 6 7"></polygon>
                <polygon id="Shape" points="4 5 5 5 5 7 4 7"></polygon>
                <polygon id="Shape" points="2 5 3 5 3 7 2 7"></polygon>
                <polygon id="Shape" points="2 8 3 8 3 10 2 10"></polygon>
                <polygon id="Shape" points="4 8 5 8 5 10 4 10"></polygon>
                <polygon id="Shape" points="2 11 3 11 3 13 2 13"></polygon>
                <polygon id="Shape" points="4 11 5 11 5 13 4 13"></polygon>
                <polygon id="Shape" points="2 14 3 14 3 16 2 16"></polygon>
                <polygon id="Shape" points="4 14 5 14 5 16 4 16"></polygon>
                <polygon id="Shape" points="2 17 3 17 3 19 2 19"></polygon>
                <polygon id="Shape" points="4 17 5 17 5 19 4 19"></polygon>
            </g>
        </g>
    </g>
</svg>