<?xml version="1.0" encoding="UTF-8"?>
<svg width="18px" height="20px" viewBox="0 0 18 20" version="1.1" xmlns="http://www.w3.org/2000/svg" xmlns:xlink="http://www.w3.org/1999/xlink">
    <!-- Generator: Sketch 44.1 (41455) - http://www.bohemiancoding.com/sketch -->
    <title>ic_consumer</title>
    <desc>Created with Sketch.</desc>
    <defs></defs>
    <g id="Icons" stroke="none" stroke-width="1" fill="none" fill-rule="evenodd">
        <g transform="translate(-186.000000, -844.000000)" id="ic_consumer" fill-rule="nonzero" fill="#000000">
            <g transform="translate(186.000000, 844.000000)">
                <path d="M11.5,5 C10.122,5 9,3.878 9,2.5 C9,1.122 10.122,0 11.5,0 C12.878,0 14,1.122 14,2.5 C14,3.878 12.878,5 11.5,5 Z M11.5,1 C10.673,1 10,1.673 10,2.5 C10,3.327 10.673,4 11.5,4 C12.327,4 13,3.327 13,2.5 C13,1.673 12.327,1 11.5,1 Z" id="Shape"></path>
                <path d="M15.6126811,11.303 C15.9076811,11.598 16.3066811,11.767 16.7076811,11.767 C17.0696811,11.767 17.4056811,11.631 17.6516811,11.385 C18.1916811,10.845 18.1546811,9.931 17.5696811,9.346 L15.0776811,6.854 C14.5906811,6.367 13.7046811,6 13.0166811,6 L10.0166811,6 C9.32868107,6 8.44268107,6.367 7.95568107,6.854 L5.46368107,9.346 C5.18968107,9.62 5.02568107,9.978 5.00268107,10.352 C4.97868107,10.744 5.11668107,11.12 5.38168107,11.385 C5.62768107,11.631 5.96368107,11.767 6.32568107,11.767 C6.72668107,11.767 7.12568107,11.598 7.42068107,11.303 L9.24568107,9.478 L9.46268107,10.347 L6.36968107,13.44 C5.89368107,13.916 5.99168107,14.329 6.05568107,14.484 C6.11968107,14.639 6.34268107,15 7.01668107,15 L9.01668107,15 L9.01668107,18.5 C9.01668107,19.327 9.68968107,20 10.5166811,20 C10.9006811,20 11.2506811,19.855 11.5166811,19.617 C11.7826811,19.855 12.1326811,20 12.5166811,20 C13.3436811,20 14.0166811,19.327 14.0166811,18.5 L14.0166811,15 L16.0166811,15 C16.6906811,15 16.9126811,14.639 16.9766811,14.484 C17.0406811,14.329 17.1386811,13.916 16.6626811,13.44 L13.5696811,10.347 L13.7866811,9.478 L15.6116811,11.303 L15.6126811,11.303 Z M10.5166811,19 C10.2406811,19 10.0166811,18.776 10.0166811,18.5 L10.0166811,15 L11.0166811,15 L11.0166811,18.5 C11.0166811,18.776 10.7926811,19 10.5166811,19 Z M13.0166811,18.5 C13.0166811,18.776 12.7926811,19 12.5166811,19 C12.2406811,19 12.0166811,18.776 12.0166811,18.5 L12.0166811,15 L13.0166811,15 L13.0166811,18.5 Z M12.6626811,10.854 L15.8086811,14 L7.22268107,14 L10.3686811,10.854 C10.4926811,10.73 10.5426811,10.55 10.5006811,10.379 L10.0006811,8.379 C9.95668107,8.204 9.82268107,8.066 9.64868107,8.018 C9.47468107,7.97 9.28868107,8.019 9.16168107,8.146 L6.71268107,10.595 C6.60368107,10.704 6.46268107,10.766 6.32468107,10.766 C6.25768107,10.766 6.16168107,10.751 6.08768107,10.677 C6.00168107,10.591 5.99568107,10.474 5.99968107,10.412 C6.00768107,10.283 6.06968107,10.152 6.16968107,10.052 L8.66168107,7.56 C8.95468107,7.267 9.60068107,6.999 10.0156811,6.999 L13.0156811,6.999 C13.4306811,6.999 14.0756811,7.266 14.3696811,7.56 L16.8616811,10.052 C17.0536811,10.244 17.0906811,10.53 16.9436811,10.677 C16.8696811,10.751 16.7746811,10.766 16.7066811,10.766 C16.5686811,10.766 16.4276811,10.704 16.3186811,10.595 L13.8696811,8.146 C13.7426811,8.019 13.5566811,7.97 13.3826811,8.018 C13.2086811,8.066 13.0746811,8.204 13.0306811,8.379 L12.5306811,10.379 C12.4876811,10.549 12.5376811,10.73 12.6626811,10.854 L12.6626811,10.854 Z" id="Shape"></path>
                <path d="M4.5,5 C3.122,5 2,3.878 2,2.5 C2,1.122 3.122,0 4.5,0 C5.878,0 7,1.122 7,2.5 C7,3.878 5.878,5 4.5,5 Z M4.5,1 C3.673,1 3,1.673 3,2.5 C3,3.327 3.673,4 4.5,4 C5.327,4 6,3.327 6,2.5 C6,1.673 5.327,1 4.5,1 Z" id="Shape"></path>
                <path d="M6.5,16 C6.224,16 6,16.224 6,16.5 L6,18.5 C6,18.776 5.776,19 5.5,19 C5.224,19 5,18.776 5,18.5 L5,12.5 C5,12.224 4.776,12 4.5,12 C4.224,12 4,12.224 4,12.5 L4,18.5 C4,18.776 3.776,19 3.5,19 C3.224,19 3,18.776 3,18.5 L3,8.5 C3,8.224 2.776,8 2.5,8 C2.224,8 2,8.224 2,8.5 L2,11.5 C2,11.776 1.776,12 1.5,12 C1.224,12 1,11.776 1,11.5 L1,7.5 C1,7.224 1.224,7 1.5,7 L6.5,7 C6.776,7 7,6.776 7,6.5 C7,6.224 6.776,6 6.5,6 L1.5,6 C0.673,6 0,6.673 0,7.5 L0,11.5 C0,12.327 0.673,13 1.5,13 C1.675,13 1.843,12.969 2,12.914 L2,18.5 C2,19.327 2.673,20 3.5,20 C3.884,20 4.234,19.855 4.5,19.617 C4.766,19.855 5.116,20 5.5,20 C6.327,20 7,19.327 7,18.5 L7,16.5 C7,16.224 6.776,16 6.5,16 Z" id="Shape"></path>
            </g>
        </g>
    </g>
</svg>